<svg width="50" height="48.00000000000001" xmlns="http://www.w3.org/2000/svg" xmlns:xlink="http://www.w3.org/1999/xlink">
 <g class="layer">
  <title>Layer 1</title>
  <path d="m33.13218,13.11973l15.38,14.31c0.19,-1.19 0.29,-2.42 0.29,-3.66c0,-5.05 -1.63,-9.74 -4.39,-13.57l-10.73,1.27c-0.02,0.61 -0.22,1.18 -0.55,1.65z" fill="#ffffff" id="svg_9"/>
  <path d="m31.47218,14.33973l4.92,30.05c5.48,-2.97 9.63,-7.97 11.44,-13.96l-15.59,-16.45c-0.23,0.16 -0.5,0.27 -0.77,0.36z" fill="#ffffff" id="svg_7"/>
  <path d="m28.40218,8.86973l-5.02,-8.62l-0.01,0c-6.54,0.37 -12.37,3.31 -16.47,7.8l20.43,2.4c0.19,-0.63 0.57,-1.18 1.07,-1.58z" fill="#ffffff" id="svg_10"/>
  <path d="m30.51218,8.14973c1.33,0.02 2.45,0.83 2.93,1.96l9.17,-2.14c-4.08,-4.42 -9.84,-7.31 -16.3,-7.71l3.39,7.98c0.26,-0.06 0.53,-0.1 0.81,-0.09z" fill="#ffffff" id="svg_8"/>
  <path d="m29.63218,14.40973l-13.98,31.15c2.81,1.14 5.9,1.77 9.14,1.77c3.16,0 6.19,-0.61 8.96,-1.7l-3.48,-31.12c-0.22,-0.01 -0.43,-0.04 -0.64,-0.1z" fill="#ffffff" id="svg_12"/>
  <path d="m27.23218,11.67973l-22.31,-1.15c-2.61,3.76 -4.14,8.3 -4.15,13.19l0,0.17c0.01,1.28 0.12,2.54 0.33,3.76l26.31,-15.17c-0.1,-0.25 -0.15,-0.52 -0.18,-0.8z" fill="#ffffff" id="svg_13"/>
  <path d="m28.06218,13.48973l-26.29,16.99c1.8,5.95 5.92,10.91 11.34,13.88l15.44,-30.44c-0.18,-0.13 -0.34,-0.27 -0.49,-0.43z" fill="#ffffff" id="svg_11"/>
  <image fill="#ffffff" height="0" id="svg_24" width="0" x="12.32218" xlink:href="./images/logo.svg" y="61.75973"/>
 </g>

</svg>